<?xml version="1.0" standalone="no"?>
<!DOCTYPE svg PUBLIC "-//W3C//DTD SVG 20010904//EN"
 "http://www.w3.org/TR/2001/REC-SVG-20010904/DTD/svg10.dtd">
<svg version="1.0" xmlns="http://www.w3.org/2000/svg"
 width="300.000000pt" height="300.000000pt" viewBox="0 0 300.000000 300.000000"
 preserveAspectRatio="xMidYMid meet">
<metadata>
Created by potrace 1.10, written by Peter Selinger 2001-2011
</metadata>
<g transform="translate(0.000000,250.000000) scale(0.100000,-0.100000)" fill="none" stroke-width="2" stroke="#d4af37">
<path d="M1 2980 c-2 -70 36 -126 70 -105 7 5 8 -7 4 -38 -5 -33 -3 -55 9 -78
9 -18 16 -33 16 -35 0 -1 -23 -5 -50 -9 -28 -4 -50 -12 -50 -18 1 -27 90 -135
155 -190 76 -63 88 -91 60 -134 l-17 -25 -29 28 c-18 17 -32 43 -35 66 -6 35
-9 38 -38 38 -17 0 -46 9 -63 20 -26 15 -33 17 -33 5 0 -21 40 -45 76 -45 28
0 32 -4 38 -34 4 -19 20 -49 36 -66 27 -29 29 -35 21 -70 -5 -22 -6 -41 -3
-45 3 -3 -2 -5 -11 -5 -27 0 -87 62 -101 105 -10 27 -21 41 -35 43 -12 2 -21
-1 -21 -7 0 -6 7 -11 15 -11 8 0 15 -8 15 -17 0 -19 32 -77 56 -103 8 -8 25
-32 39 -52 l24 -37 -25 -46 c-16 -28 -33 -45 -44 -45 -30 0 -69 -42 -75 -82
-6 -34 -5 -36 23 -43 16 -3 40 -3 54 0 19 5 27 1 35 -18 7 -14 9 -28 6 -31
-12 -12 -64 -6 -89 10 -45 30 -37 7 15 -43 31 -30 53 -61 57 -80 5 -27 11 -31
46 -36 84 -11 164 -111 155 -194 -3 -24 -1 -43 3 -43 5 0 23 -12 41 -27 63
-53 87 -155 53 -226 -15 -31 -15 -35 10 -81 28 -53 33 -112 15 -165 -6 -17
-13 -31 -15 -31 -3 0 -22 10 -42 21 -37 22 -37 22 -37 89 0 58 -4 72 -24 94
-23 25 -23 26 -6 52 24 37 24 121 -1 163 -10 18 -34 42 -52 53 -27 16 -33 26
-29 45 7 37 -12 97 -40 128 -28 29 -80 55 -112 55 -13 0 -21 9 -26 28 -3 15
-14 38 -25 52 -18 23 -20 23 -19 5 0 -11 6 -29 14 -39 8 -11 15 -30 15 -42 0
-17 7 -22 40 -27 82 -11 132 -70 128 -150 -2 -44 1 -49 30 -67 37 -23 72 -75
72 -108 l0 -24 -31 27 c-18 14 -49 35 -69 45 -24 12 -45 34 -60 62 -27 53 -80
125 -114 157 -38 35 -33 6 7 -43 37 -45 97 -132 97 -139 0 -3 -16 0 -35 6 -23
7 -43 24 -61 51 -16 23 -29 35 -32 28 -2 -7 3 -24 12 -37 15 -22 15 -25 1 -25
-37 0 -9 -17 54 -33 61 -16 141 -57 211 -109 21 -15 22 -20 11 -44 l-12 -27
-27 25 c-59 54 -139 95 -221 113 -57 12 -32 -15 31 -35 152 -47 264 -156 256
-248 l-3 -37 -24 44 c-46 88 -166 179 -258 197 -41 8 -46 -13 -5 -22 46 -11
121 -53 163 -91 45 -40 105 -123 91 -123 -25 0 -72 29 -102 63 -35 41 -100 83
-149 97 -47 13 -40 -14 7 -29 37 -13 137 -79 130 -86 -2 -2 -40 7 -83 20 -94
29 -85 28 -85 11 0 -8 14 -17 33 -21 299 -64 557 -254 557 -409 0 -18 -7 -41
-15 -52 -14 -18 -14 -17 -15 13 0 64 -39 142 -104 208 -48 48 -84 73 -166 114
-105 51 -272 103 -287 88 -12 -12 16 -25 71 -33 l50 -6 -27 -24 c-31 -26 -48
-29 -78 -14 -15 8 -19 7 -19 -4 0 -31 78 -36 105 -6 18 20 18 20 36 -20 10
-22 23 -40 29 -40 5 0 10 -4 10 -10 0 -5 -7 -10 -15 -10 -41 0 -152 -240 -162
-352 -5 -55 -4 -58 26 -84 39 -33 61 -73 61 -114 0 -18 5 -30 13 -30 19 0 54
-41 62 -72 10 -40 -11 -93 -52 -128 l-35 -31 13 -45 c14 -46 29 -59 29 -24 0
25 2 25 42 0 18 -11 47 -20 63 -20 26 0 21 5 -43 41 l-73 40 30 30 30 29 61
-39 c81 -52 173 -82 260 -84 38 -1 70 -5 70 -9 0 -5 7 -8 15 -8 8 0 15 8 15
19 0 25 18 39 71 55 42 13 43 13 17 20 -16 5 -37 3 -55 -6 -25 -12 -31 -11
-61 8 -18 13 -61 27 -100 32 -191 29 -276 43 -279 46 -2 2 -1 11 3 20 5 13 14
15 48 8 53 -9 343 -9 377 0 23 7 26 5 22 -15 -5 -26 39 -87 63 -87 18 0 18 1
-6 -54 -15 -36 -16 -46 -6 -46 18 0 42 62 56 143 22 126 -19 275 -96 352 l-39
38 34 -7 c80 -15 115 -70 137 -220 19 -122 17 -173 -5 -245 -14 -47 -16 -61
-6 -61 7 0 15 7 19 15 7 20 56 20 56 0 0 -23 15 -18 28 9 10 22 7 29 -24 61
-33 35 -34 39 -34 117 0 64 4 85 20 109 19 26 20 30 5 58 -25 50 -18 48 39 -8
50 -49 53 -56 41 -75 -35 -57 -24 -135 26 -185 25 -25 28 -34 19 -50 -12 -24
-13 -51 -2 -51 5 0 14 18 21 40 11 39 11 42 -18 71 -33 33 -47 81 -37 134 9
45 22 52 50 26 20 -19 24 -35 29 -109 7 -99 24 -162 45 -162 10 0 12 5 7 18
-14 31 -35 136 -35 174 0 36 1 37 24 27 19 -9 25 -21 30 -63 8 -66 22 -117 40
-141 23 -32 26 -13 6 45 -11 30 -19 72 -20 92 0 34 2 37 22 29 16 -6 25 -22
35 -65 16 -69 39 -116 58 -116 11 0 9 12 -10 53 -13 28 -26 67 -30 85 -7 32
-6 33 20 30 24 -3 30 -10 39 -48 16 -63 53 -120 77 -120 18 0 17 3 -9 37 -28
36 -52 91 -52 119 0 8 10 14 23 14 19 0 26 -8 36 -40 6 -22 25 -55 40 -73 15
-17 26 -38 24 -44 -9 -25 18 -12 48 22 34 39 50 43 70 19 10 -12 10 -20 1 -35
-10 -15 -9 -19 2 -19 8 0 19 7 24 15 7 14 15 14 71 1 60 -14 67 -14 117 5 30
11 77 36 105 56 l52 36 -23 -39 c-13 -22 -27 -43 -32 -48 -11 -13 -10 -26 1
-26 5 0 33 43 61 96 28 53 53 94 55 92 2 -1 -3 -37 -10 -78 -17 -92 -18 -110
-5 -110 6 0 10 13 10 29 0 16 3 37 7 47 5 13 9 6 17 -26 6 -24 17 -46 25 -48
10 -3 11 1 5 19 -17 45 -8 220 13 278 25 70 49 83 37 20 -23 -114 -3 -319 31
-319 11 0 12 6 3 31 -9 27 -7 34 15 57 13 15 32 41 40 57 l15 30 11 -27 c11
-31 46 -45 66 -28 8 7 17 27 21 46 l6 33 23 -27 c13 -15 34 -33 47 -40 22 -12
24 -18 20 -73 -3 -36 0 -59 6 -59 15 0 22 26 22 83 0 109 -20 186 -78 300 -2
4 1 7 6 7 20 0 85 -102 103 -161 20 -66 24 -132 10 -192 -8 -32 -7 -38 7 -35
20 4 35 59 30 119 -2 26 -2 46 0 45 1 -2 20 -40 42 -85 22 -44 44 -81 50 -81
6 0 1 19 -11 43 -12 23 -42 85 -66 137 l-44 95 61 -60 c34 -33 91 -95 127
-137 51 -62 70 -78 91 -78 l27 0 -25 20 -25 20 35 0 c45 0 80 24 80 55 0 26
-35 65 -59 66 -9 0 -5 5 9 10 22 9 29 6 62 -29 20 -22 44 -62 54 -90 18 -49
19 -50 54 -45 19 3 42 15 51 26 16 19 16 19 23 -7 3 -14 10 -26 15 -26 13 0
23 32 13 39 -4 3 -22 26 -39 51 l-31 45 39 -3 c24 -3 39 0 39 7 0 6 -12 11
-27 11 -16 0 -35 5 -43 10 -13 9 -13 11 0 20 8 6 27 13 43 17 15 3 27 12 27
20 0 10 -6 13 -16 9 -9 -3 -22 -6 -30 -6 -8 0 -26 -11 -40 -25 -20 -20 -29
-23 -40 -14 -11 9 -11 15 1 39 18 35 81 90 103 90 15 0 18 9 19 48 l0 49 -61
9 c-46 7 -62 13 -64 26 -3 14 3 18 27 18 57 0 62 67 10 134 l-19 24 37 -10
c21 -6 46 -14 56 -19 13 -7 17 -6 17 5 0 9 -14 19 -32 24 -32 9 -31 11 15 26
9 3 17 10 17 15 0 7 -9 7 -27 0 -15 -5 -54 -10 -86 -10 -95 -1 -301 13 -315
20 -7 4 37 19 100 34 166 39 237 49 285 42 28 -4 43 -2 43 4 0 6 -17 11 -37
12 l-38 1 37 16 c21 10 38 23 38 30 0 16 -5 15 -40 -3 -17 -9 -41 -20 -55 -25
-25 -9 -25 -9 -9 14 20 31 15 95 -8 110 -13 8 -26 7 -49 -1 -26 -10 -30 -10
-25 3 3 9 6 22 6 29 0 21 66 38 126 33 41 -4 54 -1 54 9 0 7 -11 13 -25 13
-22 0 -25 4 -25 35 0 31 3 35 25 35 15 0 25 6 25 14 0 12 -8 12 -60 0 -34 -8
-74 -21 -90 -29 -25 -13 -30 -13 -30 -2 0 16 77 60 138 78 23 7 42 18 42 26 0
19 -24 12 -118 -34 -41 -19 -74 -33 -76 -31 -1 1 -7 10 -14 19 -11 14 -7 20
31 42 24 15 74 36 111 48 71 23 90 45 30 36 -38 -6 -141 -54 -184 -84 l-25
-18 22 31 c49 68 79 92 139 109 84 23 84 23 84 35 0 14 -9 13 -79 -9 -34 -10
-61 -18 -61 -16 0 1 5 16 11 32 9 27 17 32 70 43 56 12 73 24 48 32 -9 3 -9 9
0 25 25 47 10 57 -18 12 -25 -39 -66 -68 -79 -55 -6 7 49 109 80 148 16 21 28
46 26 55 -2 13 -15 1 -47 -42 l-43 -60 5 87 c6 93 22 135 62 166 14 11 25 25
25 31 0 33 -65 -21 -86 -72 l-18 -44 -22 66 -23 66 32 32 c17 18 50 40 74 49
47 18 53 36 26 66 -17 19 -17 21 0 50 20 36 21 48 4 48 -21 0 -57 44 -57 69 0
33 18 61 46 71 30 12 34 56 5 65 -34 10 -71 46 -91 86 -11 21 -16 39 -10 39
16 0 50 62 50 91 0 36 -34 76 -71 84 -28 6 -29 8 -12 20 15 11 19 10 31 -6 7
-10 23 -19 36 -19 35 0 86 20 86 35 0 10 -8 10 -42 -2 -82 -28 -88 9 -7 47 27
13 49 29 49 37 0 18 -8 16 -67 -16 l-52 -29 6 29 c4 22 -1 34 -25 59 -17 16
-40 30 -51 30 -26 0 -27 22 -2 75 32 69 86 105 157 105 27 0 34 4 34 19 0 13
-12 22 -45 31 -47 13 -51 19 -35 51 8 14 7 19 -3 19 -7 0 -21 -15 -30 -34 -39
-84 -334 -255 -468 -273 -34 -5 -43 -1 -75 31 -20 20 -35 39 -32 41 3 3 19 0
37 -6 55 -19 127 -4 236 50 92 46 201 127 233 172 25 36 -10 21 -55 -23 -23
-23 -45 -39 -49 -36 -3 4 -6 23 -7 42 -1 24 -6 36 -15 36 -11 0 -13 -9 -8 -40
6 -38 5 -40 -13 -30 -60 32 -131 -9 -131 -76 l0 -37 -20 26 c-48 61 -159 33
-160 -40 0 -28 -11 -29 -38 -5 -13 11 -28 50 -42 110 -19 78 -25 92 -42 92
-20 0 -20 -4 -13 -110 3 -60 4 -114 0 -120 -4 -7 -16 -3 -32 10 -56 44 -143 8
-143 -60 0 -16 -4 -30 -10 -30 -5 0 -10 13 -10 29 0 33 -37 77 -73 86 -31 8
-87 -20 -94 -46 -9 -32 -18 -21 -19 22 0 55 -40 93 -91 87 -31 -4 -33 -2 -33
27 0 17 4 35 8 40 5 6 13 22 20 38 9 22 9 27 -2 27 -7 0 -19 -14 -26 -30 l-13
-31 -21 30 c-15 23 -29 31 -51 31 l-30 0 32 -20 c41 -24 66 -73 58 -109 -5
-25 -2 -30 25 -41 42 -17 65 -65 56 -115 -8 -40 -54 -95 -80 -95 -19 0 -20 -8
-1 -40 32 -56 8 -119 -55 -144 -55 -22 -102 -20 -134 5 l-27 21 -21 -21 c-45
-49 -109 -48 -159 1 -20 20 -29 40 -29 61 0 28 -6 34 -38 48 -77 32 -94 148
-31 211 23 23 27 35 22 58 -14 72 24 141 92 165 l40 14 -57 -1 c-43 0 -55 -4
-51 -14 4 -11 -7 -13 -58 -8 -35 3 -80 10 -99 15 -19 5 -55 9 -79 9 -39 0 -43
-2 -38 -21 5 -20 -22 -59 -43 -59 -5 0 -25 14 -45 32 -27 23 -33 33 -23 39 8
5 -6 9 -35 9 -29 0 -46 -4 -42 -10 12 -20 -15 -50 -45 -50 -30 0 -57 30 -45
50 3 6 -5 10 -19 10 -18 0 -24 -4 -20 -14 9 -23 -15 -56 -40 -56 -30 0 -50 24
-43 50 3 12 0 20 -8 20 -19 0 -26 -28 -13 -53 14 -27 27 -37 53 -37 18 0 20
-5 17 -34 -8 -66 65 -100 112 -53 22 22 26 23 51 10 53 -28 108 19 90 77 -6
19 -5 20 12 10 23 -15 43 -56 43 -90 0 -62 -115 -107 -157 -61 l-20 21 -23
-25 c-48 -51 -144 -15 -142 52 0 26 -4 32 -28 37 -50 10 -78 90 -43 128 19 21
3 24 -27 6 -16 -10 -24 -10 -41 0 -29 19 -39 4 -12 -18 l22 -18 -50 -47 c-47
-44 -51 -46 -72 -32 -12 8 -23 27 -25 43 -2 25 4 33 45 56 l48 27 -37 1 c-21
0 -38 -5 -38 -10 0 -6 -21 -20 -46 -31 -60 -25 -214 -69 -214 -60 0 4 18 25
40 46 22 21 40 43 40 48 0 19 -29 -1 -69 -46 -34 -40 -42 -45 -47 -30 -3 10
-12 34 -19 53 -12 31 -14 32 -14 10z m1062 -7 c38 -8 52 -36 36 -74 -19 -48
-41 -53 -101 -23 -46 23 -50 27 -32 37 25 14 34 27 34 56 0 18 4 22 18 16 9
-3 30 -9 45 -12z m144 -23 c23 0 23 -1 9 -22 -9 -12 -16 -42 -16 -65 0 -47 4
-45 -88 -27 l-22 4 21 29 c15 21 20 39 17 61 -5 31 -4 32 25 26 16 -3 40 -6
54 -6z m-702 -90 c10 -11 26 -22 35 -25 10 -3 20 -18 23 -33 7 -36 51 -79 88
-87 20 -5 41 -1 67 13 34 17 40 18 68 5 24 -12 38 -13 73 -3 62 16 91 49 91
102 1 40 2 42 15 24 8 -11 15 -36 15 -56 0 -69 -51 -108 -138 -106 -41 1 -57
6 -68 21 -14 18 -15 18 -45 -11 -24 -23 -39 -29 -75 -29 -40 0 -50 5 -80 37
-22 24 -34 48 -34 66 0 23 -6 30 -36 41 -24 9 -40 24 -51 47 -16 32 -15 35 3
55 l19 21 6 -31 c4 -18 15 -41 24 -51z m333 64 c37 -26 23 -74 -23 -74 -42 0
-59 44 -29 74 19 20 24 20 52 0z m1427 -45 c15 -57 15 -62 -1 -51 -6 4 -14 31
-17 61 -8 65 -1 61 18 -10z m-1975 30 c0 -29 18 -59 35 -59 24 0 17 -14 -14
-33 -41 -24 -66 -21 -90 9 -32 40 -27 71 12 88 45 20 57 19 57 -5z m2667 -4
c-1 -1 -24 -5 -50 -7 -45 -5 -47 -5 -32 12 14 15 22 16 51 7 18 -6 33 -11 31
-12z m-2249 -1 c34 -23 27 -68 -11 -72 -51 -6 -74 33 -40 70 20 22 23 22 51 2z
m1974 -3 c4 -4 -20 -23 -55 -44 -57 -33 -62 -35 -65 -17 -4 26 15 59 41 70 22
8 65 3 79 -9z m-2507 -11 c-9 -14 23 -83 46 -101 20 -15 18 -16 -36 -34 -56
-20 -57 -20 -71 0 -15 20 -19 92 -5 113 6 10 25 19 69 31 2 1 1 -3 -3 -9z
m255 -30 c10 -18 8 -20 -21 -20 -31 0 -32 0 -14 20 10 11 19 20 21 20 2 0 8
-9 14 -20z m2393 -22 c-31 -35 -47 -69 -53 -118 l-6 -45 -17 33 c-21 38 -14
57 41 115 38 39 70 53 35 15z m-1733 -19 c35 -11 78 -19 94 -19 l29 0 -26 -21
c-15 -11 -32 -39 -39 -62 -15 -54 -12 -51 -42 -32 -36 24 -107 23 -150 -3 -19
-12 -38 -17 -40 -13 -3 4 10 15 28 23 19 10 40 31 49 51 20 41 21 61 6 89 -10
19 -9 20 7 13 11 -4 48 -16 84 -26z m700 21 c16 -8 40 -58 40 -81 0 -22 -22
-5 -40 31 -11 22 -25 40 -30 40 -6 0 -10 5 -10 10 0 13 16 13 40 0z m716 -13
l27 -24 -45 -12 c-25 -7 -60 -13 -79 -14 -29 -2 -33 1 -31 18 10 56 79 74 128
32z m-2017 -26 l34 -18 -89 -6 c-68 -4 -92 -2 -103 8 -13 12 -13 15 0 19 55
19 119 18 158 -3z m1811 -67 c0 -24 -1 -24 -25 -8 -19 13 -25 25 -25 53 l1 36
24 -28 c14 -15 25 -39 25 -53z m428 47 c-13 -21 -38 -29 -38 -12 0 9 43 41 48
36 2 -2 -3 -12 -10 -24z m-2376 -45 c70 -63 136 -86 253 -86 85 0 96 2 123 25
17 14 33 22 35 18 3 -5 -15 -26 -40 -47 -99 -86 -269 -62 -416 58 -54 44 -57
49 -40 62 26 20 30 18 85 -30z m1632 22 c13 -13 27 -34 31 -46 6 -20 4 -23
-12 -18 -10 3 -40 10 -68 17 -65 15 -71 22 -44 48 29 27 62 27 93 -1z m192 6
c19 -9 31 -21 28 -26 -10 -16 -87 -48 -117 -48 -25 0 -27 3 -22 23 9 29 45 67
63 67 8 0 29 -7 48 -16z m-1646 -34 c7 -17 22 -38 34 -46 40 -30 -70 -7 -137
28 l-62 33 50 6 c99 12 102 11 115 -21z m2158 14 c62 -43 82 -162 38 -227
l-25 -36 20 -38 c39 -74 2 -192 -70 -224 -26 -12 -31 -20 -31 -48 0 -87 -76
-168 -165 -179 -33 -3 -49 -10 -57 -26 -6 -11 -22 -33 -35 -48 l-25 -27 -23
46 -24 46 29 23 c15 13 30 34 34 46 4 20 12 23 50 23 75 1 141 70 134 142 -3
27 1 33 29 47 66 31 95 131 56 197 -16 26 -16 30 -1 46 46 51 44 124 -5 180
-16 18 -28 35 -26 37 7 6 64 35 69 36 3 0 16 -7 28 -16z m-2314 -118 c65 -38
158 -59 234 -53 l63 5 -3 -27 c-3 -25 -6 -26 -66 -29 -132 -6 -246 38 -357
140 -66 60 -66 62 -44 74 21 11 28 8 76 -36 28 -26 72 -59 97 -74z m1516 72
c61 -22 188 -34 243 -24 20 4 50 18 67 32 36 30 39 20 8 -26 -15 -22 -36 -37
-58 -43 -64 -17 -234 4 -332 42 -20 8 -25 15 -21 31 4 15 11 19 22 15 9 -4 41
-16 71 -27z m-1675 -43 c47 -46 91 -77 152 -107 83 -41 90 -43 194 -46 79 -3
109 -8 113 -18 18 -48 -168 -50 -286 -3 -74 29 -156 85 -220 151 -62 63 -68
74 -40 81 9 3 18 5 19 6 1 0 32 -28 68 -64z m2091 3 c18 -35 18 -109 0 -133
-10 -15 -11 -25 -4 -39 35 -64 -10 -162 -88 -192 -44 -17 -49 -17 -95 -1 -38
14 -53 15 -72 6 -53 -24 -139 16 -172 82 -19 36 -19 82 0 120 12 21 13 34 5
48 -5 11 -10 36 -10 55 0 34 1 35 26 26 14 -6 35 -10 48 -10 19 0 21 -4 18
-35 -2 -20 1 -42 8 -50 10 -13 10 -19 -4 -33 -23 -27 -20 -69 9 -97 27 -28 62
-32 90 -11 17 12 23 12 44 -6 60 -47 148 34 106 98 -14 22 -14 26 0 40 19 19
20 64 1 89 -12 16 -11 21 5 39 11 11 19 27 19 36 0 41 38 23 66 -32z m289 22
c40 -42 46 -112 13 -160 -24 -35 -24 -36 -6 -65 36 -60 11 -142 -53 -177 -24
-13 -33 -24 -31 -38 5 -33 -16 -85 -48 -115 -24 -23 -41 -30 -77 -31 -41 -2
-47 -5 -59 -32 -7 -17 -24 -38 -37 -47 -24 -15 -29 -15 -73 0 -50 17 -88 14
-136 -11 -25 -13 -31 -12 -53 2 -18 12 -38 15 -71 11 -41 -4 -47 -2 -56 19
-10 21 -18 24 -69 24 l-57 0 5 38 c6 47 -16 95 -55 119 -15 9 -29 18 -31 19
-1 2 0 7 3 13 5 7 18 5 41 -6 25 -12 35 -24 40 -50 12 -67 107 -133 189 -133
15 0 42 7 62 15 32 13 37 13 67 -5 40 -25 109 -26 162 -1 46 20 105 83 105
110 0 14 10 21 38 26 51 9 115 77 130 138 12 44 8 95 -9 129 -6 10 -1 33 12
64 21 46 22 85 3 152 -9 32 16 29 51 -8z m-2492 -9 c23 -39 128 -135 184 -167
76 -45 172 -75 259 -81 l82 -6 -11 -25 c-11 -24 -14 -24 -88 -19 -174 14 -339
107 -461 262 -36 44 -38 50 -21 56 31 13 38 10 56 -20z m2256 12 c16 -10 35
-28 40 -41 18 -38 13 -93 -10 -118 -20 -21 -20 -24 -5 -46 9 -12 16 -42 16
-66 0 -35 -6 -49 -29 -73 -17 -16 -40 -29 -54 -29 l-24 0 24 48 c19 37 23 56
18 87 -9 55 -8 64 6 112 12 38 11 48 -8 93 -23 55 -20 59 26 33z m165 -15 c12
-46 6 -113 -14 -145 -17 -29 -18 -35 -5 -60 21 -40 18 -100 -6 -150 -23 -48
-58 -77 -109 -90 -22 -6 -36 -16 -39 -29 -5 -29 -48 -82 -80 -99 -53 -27 -104
-29 -156 -6 -44 20 -50 20 -91 6 -43 -15 -89 -12 -129 8 -38 18 -85 72 -95
107 -8 28 -18 40 -48 53 -37 16 -102 97 -102 127 0 7 16 27 36 44 29 25 37 40
41 77 3 26 0 55 -6 67 -9 18 -8 23 8 32 28 14 31 13 31 -13 0 -12 7 -32 15
-44 13 -18 13 -22 0 -33 -8 -7 -20 -30 -25 -51 -15 -55 13 -119 63 -142 19 -9
39 -17 44 -17 5 0 10 -11 11 -26 6 -80 108 -130 182 -89 22 12 27 11 42 -2 23
-21 92 -28 128 -13 35 15 70 59 70 89 0 16 6 21 29 21 52 0 111 66 111 125 0
14 -7 39 -15 55 -14 27 -13 32 6 65 21 35 22 71 4 116 -4 11 4 18 32 26 56 16
60 15 67 -9z m330 -23 c12 -32 6 -64 -18 -92 -13 -15 -27 -25 -31 -22 -7 8
-23 148 -17 154 8 8 59 -24 66 -40z m-1753 12 c43 -29 76 -94 60 -119 -9 -15
-6 -20 23 -32 39 -16 66 -51 66 -85 0 -44 -38 -108 -71 -120 -33 -11 -35 -18
-14 -45 40 -54 -1 -133 -81 -155 -57 -16 -69 -14 -103 15 l-31 26 -21 -26
c-54 -69 -189 -23 -189 65 0 23 -7 31 -34 43 -64 26 -91 102 -62 171 9 21 25
44 35 52 16 11 19 22 15 66 -4 41 -1 59 15 85 43 68 140 94 194 52 23 -18 26
-18 38 -4 33 39 110 45 160 11z m724 -7 c20 -8 25 -15 20 -30 -4 -11 -1 -36 5
-55 9 -27 8 -43 -4 -78 -15 -45 -9 -108 13 -130 16 -16 14 -27 -5 -27 -9 0
-31 15 -50 34 -41 41 -47 97 -13 140 19 24 19 27 5 48 -17 24 -22 108 -7 108
5 0 22 -5 36 -10z m375 -49 c16 -30 12 -59 -10 -74 -18 -13 -19 -16 -5 -27 20
-16 19 -59 -2 -82 -19 -22 -66 -24 -83 -3 -11 13 -15 13 -33 0 -30 -21 -44
-19 -72 10 -30 29 -31 49 -5 75 19 19 19 22 5 37 -9 8 -15 27 -13 42 3 26 4
26 87 28 46 1 86 4 89 7 11 12 32 5 42 -13z m637 -244 c42 -95 71 -135 115
-154 36 -16 37 -18 17 -25 -34 -13 -76 0 -101 31 -22 26 -90 155 -122 232 -14
34 -13 40 7 80 l21 43 18 -73 c10 -40 30 -100 45 -134z m-1612 171 c14 -6 25
-15 25 -20 0 -12 -6 -10 -42 12 -36 22 -25 27 17 8z m1645 -43 c25 -13 30 -21
30 -54 0 -23 -8 -48 -19 -62 l-18 -22 -26 76 c-28 84 -24 92 33 62z m-2570
-104 c0 -49 31 -155 63 -220 41 -85 142 -188 223 -229 102 -51 167 -66 289
-66 95 0 121 4 185 27 41 15 82 30 90 33 8 3 24 -2 35 -10 19 -14 17 -16 -46
-45 -174 -82 -385 -78 -569 11 -82 39 -201 157 -248 245 -38 73 -72 196 -72
265 l0 48 25 -16 c16 -10 25 -26 25 -43z m1008 8 c-24 -16 -38 -9 -38 16 0 25
0 25 26 9 19 -13 22 -19 12 -25z m149 -7 c-9 -9 -23 -12 -33 -8 -16 6 -16 8 6
20 31 16 47 9 27 -12z m-1105 7 c19 -8 26 -23 35 -71 34 -177 184 -330 361
-367 113 -24 258 -9 340 33 19 10 35 16 37 14 1 -2 7 -13 13 -24 11 -20 8 -23
-41 -42 -85 -34 -127 -42 -222 -42 -296 0 -500 175 -550 473 -7 41 -6 42 27
26z m1269 -32 c44 -29 74 -88 60 -116 -10 -17 -7 -22 25 -37 90 -43 69 -187
-31 -209 l-30 -7 27 24 c35 31 48 59 48 106 0 32 -6 45 -30 65 -17 14 -30 36
-30 48 0 34 -37 85 -74 103 -42 20 -67 20 -112 1 -25 -10 -41 -12 -54 -5 -30
16 -82 12 -117 -10 -41 -25 -63 -68 -63 -125 0 -25 -4 -45 -9 -45 -14 0 -41
-66 -41 -102 0 -39 33 -98 60 -105 11 -3 22 -17 25 -33 3 -16 12 -33 19 -39
13 -11 10 -61 -4 -61 -12 0 -39 63 -37 85 1 14 -5 21 -20 23 -12 2 -36 19 -53
38 -24 28 -30 44 -30 80 0 50 21 98 48 113 16 8 18 19 14 65 -3 44 0 62 17 89
39 64 148 90 192 46 18 -18 22 -19 32 -6 35 43 115 50 168 14z m-1180 3 c10
-6 19 -21 19 -33 0 -41 59 -147 110 -198 85 -85 221 -129 354 -114 56 6 82 15
199 73 4 2 7 -10 7 -28 0 -28 -5 -34 -53 -55 -131 -60 -298 -57 -434 10 -111
55 -195 160 -229 290 -8 28 -14 53 -14 58 0 10 18 9 41 -3z m-165 -191 c15
-29 15 -32 -5 -46 -66 -46 -68 -167 -3 -220 11 -9 12 -16 4 -25 -42 -52 -7
-158 64 -193 36 -17 43 -26 48 -59 5 -27 19 -51 46 -78 38 -38 42 -40 95 -36
46 2 56 0 61 -15 3 -9 21 -29 40 -44 47 -36 119 -38 163 -5 29 21 33 22 60 7
17 -8 50 -15 75 -15 36 0 52 6 81 31 19 17 38 41 41 53 4 17 12 21 49 21 75 0
137 62 137 137 0 39 3 45 27 54 l27 11 -18 -106 c-9 -58 -17 -114 -18 -123 0
-23 -52 -49 -101 -51 -33 -1 -43 -6 -54 -27 -44 -83 -157 -123 -235 -82 -34
19 -34 19 -68 -5 -66 -44 -172 -26 -226 37 -24 30 -34 34 -79 34 -49 1 -55 4
-104 54 -46 46 -53 58 -53 93 0 22 -7 54 -16 72 -24 48 -83 105 -121 118 -37
12 -41 30 -19 84 13 30 13 36 0 43 -24 13 -54 84 -54 126 0 45 33 122 60 138
15 10 17 21 13 67 -4 40 0 67 12 96 l17 40 19 -78 c10 -42 26 -91 35 -108z
m260 164 c28 -91 98 -179 166 -208 24 -11 56 -29 71 -42 37 -30 106 -31 152
-3 31 19 32 19 69 0 l38 -19 -28 -8 c-16 -4 -78 -8 -139 -8 -100 0 -116 3
-172 29 -97 44 -184 149 -208 249 -6 24 -5 27 19 27 17 0 29 -7 32 -17z m74
-15 c0 -18 -5 -40 -10 -48 -7 -12 -12 -7 -25 22 -20 50 -19 58 10 58 22 0 25
-4 25 -32z m2260 -142 c18 -14 38 -26 46 -26 11 0 12 -4 4 -19 -5 -11 -10 -31
-10 -46 0 -23 -2 -25 -21 -14 -12 6 -30 8 -41 6 -15 -4 -18 -2 -13 11 16 38
16 62 -1 90 -31 53 -86 66 -141 32 -37 -22 -51 -61 -35 -102 9 -26 8 -28 -14
-28 -21 0 -23 3 -14 26 6 14 10 38 10 53 0 21 10 34 44 58 31 22 49 44 61 77
l18 47 38 -70 c21 -38 52 -81 69 -95z m-1448 125 c24 -20 25 -20 41 0 24 27
95 26 131 -2 34 -27 51 -66 36 -84 -8 -10 -2 -18 24 -33 68 -40 59 -121 -20
-168 -15 -10 -17 -14 -6 -25 13 -14 16 -57 6 -84 -8 -21 -58 -46 -95 -47 -18
-1 -39 8 -53 21 l-24 23 -11 -21 c-12 -22 -52 -37 -86 -32 -29 3 -65 48 -65
80 0 24 -5 30 -30 35 -61 12 -78 123 -25 164 20 16 23 25 18 59 -7 51 15 95
59 116 44 22 70 21 100 -2z m568 -29 c26 -2 57 1 69 7 17 10 26 9 43 -4 31
-21 96 -19 141 5 42 23 43 21 21 -25 -30 -64 -119 -82 -170 -35 -18 18 -22 19
-34 6 -36 -45 -136 -21 -164 39 -24 50 -20 59 15 34 18 -12 52 -24 79 -27z
m-1346 -44 c-3 -5 -12 -8 -20 -8 -14 0 -20 31 -7 43 8 8 33 -25 27 -35z m55
-27 c19 -12 28 -66 9 -55 -41 24 -68 47 -63 55 8 12 36 11 54 0z m2095 -12
c36 -28 36 -80 0 -108 -45 -35 -92 -24 -113 27 -30 73 50 131 113 81z m-2465
-120 l32 -51 -21 -42 c-24 -50 -26 -103 -4 -154 20 -48 70 -99 104 -107 20 -4
29 -14 33 -33 9 -43 49 -95 92 -119 56 -31 103 -37 156 -19 41 14 46 14 87 -6
84 -40 205 4 246 89 15 31 28 44 49 49 43 9 103 69 123 121 l17 45 14 -26 c8
-14 19 -26 25 -26 19 0 -22 -38 -48 -44 -20 -5 -24 -12 -24 -47 0 -79 -49
-131 -123 -131 -37 0 -44 -4 -57 -31 -23 -49 -76 -80 -128 -74 -24 3 -52 13
-63 23 -13 11 -23 14 -27 8 -43 -64 -166 -56 -208 14 -15 26 -21 28 -63 25
-78 -7 -141 52 -141 132 0 16 -6 25 -15 25 -29 0 -75 30 -90 60 -18 34 -20 89
-4 123 9 20 7 28 -14 51 -45 48 -47 118 -6 171 11 14 22 25 23 25 2 0 17 -23
35 -51z m2366 -34 c14 -13 25 -36 25 -50 0 -35 -42 -75 -79 -75 -35 0 -71 39
-71 77 0 32 42 73 75 73 14 0 37 -11 50 -25z m-2598 -25 c0 -40 0 -40 -38 -40
-22 0 -39 2 -39 5 0 14 31 64 42 68 29 12 35 6 35 -33z m2813 20 c42 -42 7
-120 -53 -120 -38 0 -50 7 -66 37 -27 53 3 103 64 103 22 0 43 -8 55 -20z
m-1015 -8 c3 -9 -7 -26 -27 -43 -36 -31 -93 -38 -145 -18 l-28 11 23 12 c12 6
28 21 36 31 11 16 26 20 74 21 46 1 63 -3 67 -14z m869 -34 c-2 -43 -6 -53
-23 -60 -19 -7 -20 -5 -10 14 6 11 9 38 6 59 -4 32 -2 39 12 39 13 0 16 -9 15
-52z m-2355 -19 c21 -20 31 -40 31 -60 0 -58 51 -119 100 -119 14 0 20 -7 20
-22 0 -34 35 -85 69 -103 38 -19 74 -19 111 0 27 14 32 14 62 -5 18 -11 46
-20 61 -20 52 0 112 44 122 90 5 22 13 29 39 34 18 4 43 18 57 32 25 26 129
87 137 79 9 -8 -8 -70 -28 -103 -22 -35 -70 -70 -112 -78 -17 -4 -29 -15 -32
-29 -9 -35 -56 -86 -93 -101 -47 -20 -122 -18 -158 5 -27 17 -33 17 -59 4 -42
-22 -126 -13 -170 18 -36 24 -76 84 -76 112 0 9 -19 24 -43 35 -89 39 -123
134 -85 235 6 15 12 27 13 27 2 0 17 -14 34 -31z m1638 -1 c18 -16 22 -17 30
-5 24 41 115 50 168 17 39 -24 68 -79 59 -114 -5 -21 0 -27 30 -41 39 -19 46
-32 19 -37 -24 -4 -73 45 -73 75 0 75 -114 131 -189 93 -17 -9 -32 -11 -42 -5
-24 15 -93 10 -126 -11 -42 -25 -65 -71 -62 -121 2 -22 -1 -43 -7 -47 -6 -4
-18 -20 -26 -35 -13 -26 -15 -27 -28 -12 -13 15 -11 20 10 37 21 17 24 28 25
83 0 59 3 67 35 100 55 57 129 67 177 23z m517 -46 c4 -7 20 -18 34 -23 25
-10 22 -12 -43 -35 -39 -13 -71 -24 -72 -24 -2 0 -3 11 -3 25 0 28 -32 65 -55
65 -17 0 -18 2 -9 24 4 10 19 16 43 16 20 1 47 7 61 15 24 13 25 12 31 -19 3
-17 9 -37 13 -44z m-878 22 c12 -28 13 -43 4 -70 -18 -53 -42 -65 -125 -58
-38 4 -75 10 -81 15 -5 4 -21 6 -35 2 -23 -5 -23 -5 -5 9 17 13 24 14 53 2 75
-32 168 21 168 96 0 22 1 40 3 40 2 0 10 -16 18 -36z m509 -8 c40 -17 68 -65
59 -101 -4 -18 -2 -25 8 -25 8 0 23 -7 34 -15 19 -14 18 -15 -5 -34 -25 -19
-25 -19 -44 5 -10 13 -25 24 -34 24 -9 0 -13 6 -9 15 9 25 -15 63 -46 74 -32
11 -73 1 -80 -21 -4 -10 -10 -9 -25 5 -47 42 -120 3 -110 -59 4 -25 2 -34 -8
-34 -8 0 -24 -10 -35 -22 -36 -38 -11 -107 39 -111 18 -1 21 -6 16 -29 -5 -21
-1 -33 19 -53 14 -14 33 -25 43 -25 25 0 63 28 63 46 0 12 4 12 25 -3 25 -18
31 -47 16 -72 -7 -11 -11 -10 -19 5 -10 18 -12 17 -36 -9 -41 -44 -66 -36
-100 33 -16 32 -51 84 -77 114 -27 30 -49 59 -49 66 0 6 11 22 25 36 21 21 24
32 19 59 -12 66 46 135 114 135 17 0 37 -7 46 -15 16 -17 36 -20 36 -6 0 9 44
29 68 30 7 1 28 -5 47 -13z m772 -38 c14 -16 14 -18 -3 -23 -42 -13 -87 -40
-105 -64 -11 -13 -21 -22 -23 -20 -8 9 -46 102 -43 105 2 2 17 -2 35 -8 26
-10 37 -9 66 4 19 9 38 27 42 40 7 22 8 22 12 3 2 -11 11 -28 19 -37z m-1145
29 c4 -1 3 -8 -2 -16 -7 -12 -11 -12 -24 -2 -9 7 -29 11 -46 9 -17 -3 -31 1
-34 7 -3 8 11 11 47 8 29 -3 55 -5 59 -6z m-1323 -32 c33 -23 76 -83 68 -91
-8 -8 -52 14 -74 37 -19 21 -42 79 -31 79 2 0 19 -11 37 -25z m1943 -2 c32
-29 16 -73 -27 -73 -58 0 -59 88 -1 90 5 0 18 -7 28 -17z m328 1 c0 -8 16 -49
35 -91 19 -42 35 -77 35 -78 0 -2 -16 -3 -35 -3 -20 0 -46 -7 -60 -16 -24 -16
-25 -15 -39 13 -20 38 -35 42 -94 26 l-50 -13 5 34 c3 20 1 40 -7 49 -7 9 -11
17 -9 20 7 6 193 74 207 74 6 1 12 -6 12 -15z m-982 -6 c17 -17 15 -53 -3 -68
-8 -7 -25 -10 -40 -6 -24 6 -30 21 -25 56 4 29 46 40 68 18z m-1633 -25 c-4
-10 -9 -35 -12 -56 l-6 -39 -23 49 c-13 26 -24 49 -24 50 0 2 38 10 59 12 9 1
11 -5 6 -16z m1876 -13 c21 -12 25 -50 7 -68 -39 -39 -100 17 -63 58 21 23 29
24 56 10z m137 -2 c19 -19 14 -46 -12 -63 -29 -19 -54 -10 -62 21 -11 43 42
74 74 42z m-1503 -30 c37 -12 103 -22 174 -25 105 -6 112 -7 87 -20 -33 -17
-96 -19 -125 -4 -15 8 -32 9 -59 2 -58 -16 -138 14 -164 62 -9 17 -8 19 8 12
11 -4 46 -16 79 -27z m1090 -28 c19 0 37 5 40 10 4 6 11 8 16 5 5 -4 -4 -17
-20 -30 l-29 -25 -43 23 c-24 12 -46 23 -48 24 -2 2 2 9 9 18 11 14 14 13 27
-5 9 -13 25 -20 48 -20z m781 15 c25 -38 5 -79 -45 -94 -49 -14 -52 -14 -45 4
4 8 0 25 -8 38 -22 33 -18 40 32 59 25 9 46 17 47 17 2 1 10 -10 19 -24z
m-1485 -5 c-13 -11 -35 -20 -49 -20 -32 0 -21 12 26 26 50 16 50 16 23 -6z
m373 10 c52 0 57 -2 50 -17 -9 -22 -9 -70 0 -98 6 -18 3 -21 -21 -20 -20 0
-31 -7 -41 -27 l-13 -28 -23 26 c-14 17 -32 27 -50 27 -27 0 -28 0 -22 46 14
97 16 103 39 97 12 -3 48 -6 81 -6z m161 -19 c3 -5 0 -21 -7 -36 -9 -20 -9
-34 -1 -56 11 -29 11 -29 -26 -29 -31 0 -40 5 -49 25 -15 33 -15 78 0 93 14
14 74 16 83 3z m-890 -51 c12 0 35 5 52 10 23 8 36 7 59 -5 38 -20 70 -19 122
5 41 18 42 18 42 1 0 -11 -13 -33 -29 -50 -24 -26 -37 -31 -74 -31 -30 0 -53
7 -71 21 -26 20 -28 20 -46 4 -41 -37 -129 -16 -156 37 -26 50 -19 58 33 32
25 -13 56 -24 68 -24z m982 28 c15 -7 29 -13 31 -14 2 -1 -4 -14 -13 -28 -10
-15 -15 -37 -12 -52 4 -23 2 -25 -27 -19 -38 8 -56 30 -56 66 0 59 20 71 77
47z m738 -49 c0 -26 -6 -36 -31 -51 l-32 -19 -30 31 c-17 16 -39 30 -49 30
-10 0 9 16 42 35 53 30 62 33 80 21 13 -9 20 -24 20 -47z m-194 41 c25 -14 24
-28 -3 -57 -28 -30 -46 -29 -60 2 -9 21 -8 28 7 45 21 23 29 24 56 10z m-103
-47 c2 -10 -6 -27 -17 -37 -19 -18 -22 -18 -46 -2 -32 21 -34 63 -2 75 27 11
61 -8 65 -36z m-140 25 c7 -7 12 -22 12 -34 0 -51 -72 -61 -78 -11 -6 47 36
75 66 45z m-193 -29 l42 -31 -23 -23 c-13 -13 -24 -29 -24 -34 0 -14 -51 8
-68 28 -13 17 -8 56 10 78 14 17 14 17 63 -18z m829 -6 c-39 -60 -114 -187
-114 -195 0 -4 -10 -8 -22 -8 -12 0 -35 -12 -51 -27 -25 -23 -29 -24 -22 -8 4
11 10 59 12 108 3 48 11 91 17 94 9 6 179 60 195 62 2 1 -5 -11 -15 -26z m95
-48 c17 -41 31 -79 31 -84 0 -5 -19 -24 -42 -42 -24 -18 -76 -64 -115 -103
-40 -39 -73 -68 -73 -66 0 3 4 20 9 38 7 21 6 43 0 59 -8 21 -4 35 23 82 55
96 117 191 127 191 4 0 22 -34 40 -75z m151 20 c5 -14 13 -37 16 -52 6 -24 5
-24 -16 -13 -22 12 -58 10 -92 -4 -12 -6 -18 0 -23 24 -10 44 16 70 67 70 32
0 40 -4 48 -25z m-560 -5 c27 -27 26 -31 -14 -69 -32 -31 -36 -32 -56 -18 -12
8 -31 12 -42 9 -21 -5 -21 -5 -2 27 43 73 77 88 114 51z m-123 -14 c7 -6 -34
-75 -44 -76 -12 0 -33 30 -33 49 0 20 32 42 54 35 11 -4 22 -7 23 -8z m-805
-42 c13 -21 16 -41 12 -63 -6 -29 -8 -30 -24 -16 -9 8 -31 15 -49 15 l-33 0 7
43 c9 55 12 59 43 55 17 -2 32 -14 44 -34z m271 21 c14 -6 17 -20 17 -74 1
-36 7 -102 15 -146 19 -104 20 -102 -14 -66 -16 17 -42 34 -58 37 -25 5 -38
22 -85 107 -31 56 -62 115 -68 131 l-11 29 93 -6 c51 -3 101 -8 111 -12z m241
-20 l27 -34 -22 -22 -21 -21 -31 29 c-18 15 -34 29 -36 30 -2 2 1 14 7 28 16
35 45 31 76 -10z m165 21 c7 -8 11 -27 9 -43 -3 -25 -7 -28 -38 -28 -30 0 -35
3 -38 26 -5 45 42 76 67 45z m347 -53 c-3 -38 -11 -101 -18 -141 l-11 -73 -18
30 c-52 85 -143 69 -125 -22 l6 -31 -20 22 c-11 11 -20 27 -20 34 0 25 47 114
79 151 28 31 115 97 129 97 3 0 2 -30 -2 -67z m-856 -223 c-8 -16 -6 -30 9
-64 l19 -44 -53 37 c-28 20 -71 45 -95 56 l-42 19 7 60 c3 34 13 92 22 130
l15 68 64 -121 c54 -101 63 -124 54 -141z m211 235 c67 -35 120 -84 148 -139
l23 -46 -29 -33 -28 -32 -15 30 c-21 42 -53 44 -90 5 -17 -18 -30 -38 -30 -46
0 -8 -4 -14 -8 -14 -9 0 -27 108 -38 228 -8 83 -7 84 67 47z m1121 -22 c10 -9
18 -30 18 -49 0 -33 0 -33 -27 -18 -16 8 -40 12 -55 8 -23 -4 -27 -1 -33 25
-3 17 -4 35 0 41 10 16 77 12 97 -7z m-648 -12 c3 -5 -8 -35 -24 -66 -17 -31
-30 -63 -30 -71 0 -17 -16 -19 -25 -3 -11 17 5 118 21 134 17 17 50 20 58 6z
m-262 -68 c25 -56 23 -73 -7 -73 -15 0 -65 97 -59 115 13 33 41 15 66 -42z
m802 -65 c0 -80 -3 -101 -26 -148 -41 -87 -47 -92 -95 -84 l-43 6 25 20 c56
44 13 103 -70 96 -25 -2 -45 -1 -45 2 0 9 120 124 180 173 32 27 59 41 64 36
5 -5 10 -50 10 -101z m-1423 92 c14 -8 19 -21 19 -55 l0 -44 -35 6 c-22 4 -41
1 -51 -8 -16 -13 -16 -10 -10 36 11 73 31 89 77 65z m1530 -45 c17 -16 17 -22
-6 -122 -5 -23 -5 -23 -25 -3 -11 11 -27 20 -35 20 -12 0 -15 13 -15 60 l0 60
32 0 c17 0 39 -7 49 -15z m-763 -7 c20 -20 14 -23 -46 -25 -50 -2 -53 -1 -25
8 18 5 35 14 38 19 8 13 18 13 33 -2z m391 -12 c11 -27 2 -77 -24 -126 -27
-52 -177 -281 -181 -277 -8 8 66 257 94 320 46 100 92 135 111 83z m-1266 -65
c-8 -55 -33 -84 -33 -38 0 35 -33 60 -70 55 -33 -5 -34 -4 -20 21 6 12 17 17
33 14 13 -3 39 2 58 10 40 16 43 12 32 -62z m1061 38 c14 -7 33 -28 42 -47 16
-33 15 -38 -9 -121 -14 -47 -28 -95 -30 -106 -2 -11 -7 3 -11 30 -4 28 -16 81
-27 120 -22 81 -24 106 -7 123 15 15 12 14 42 1z m-191 -20 c92 -25 157 -128
165 -261 4 -64 0 -92 -22 -163 -15 -47 -31 -85 -37 -85 -9 0 -7 13 12 90 17
68 22 203 9 249 -14 54 -67 111 -103 111 -14 0 -38 -11 -54 -24 -28 -24 -29
-24 -52 -5 -33 27 -65 24 -103 -10 -29 -25 -32 -35 -36 -94 -5 -85 11 -180 49
-274 16 -42 28 -78 25 -80 -8 -8 -65 100 -88 167 -16 47 -22 89 -23 151 0 78
3 90 30 134 22 36 45 57 84 77 58 30 85 34 144 17z m-1477 -89 c35 -12 35 -12
14 -27 -12 -8 -22 -13 -23 -12 -18 35 -28 46 -51 57 -34 17 -63 7 -81 -28 -18
-35 -5 -79 26 -87 20 -6 20 -6 -5 -32 -33 -35 -41 -71 -23 -113 11 -26 25 -39
51 -48 20 -6 41 -8 48 -4 7 4 2 -5 -11 -20 -35 -38 -33 -87 4 -126 18 -19 39
-30 57 -30 26 0 27 -1 16 -25 -9 -20 -9 -34 1 -61 12 -33 11 -37 -8 -50 -15
-11 -21 -26 -21 -55 0 -33 5 -42 31 -58 19 -12 26 -21 19 -26 -7 -4 -8 -11 -1
-18 7 -9 -6 -12 -47 -13 -46 -1 -88 -14 -212 -66 -85 -35 -175 -72 -200 -81
-41 -16 -43 -16 -25 -1 18 15 129 69 287 141 31 15 74 43 94 64 32 32 38 46
42 92 5 62 -9 97 -70 169 -29 36 -41 61 -48 103 -5 30 -12 60 -15 66 -4 5 -11
37 -15 71 -5 35 -18 74 -30 90 -18 25 -19 31 -7 55 21 41 27 87 17 122 l-8 30
46 3 c43 3 50 0 80 -34 18 -20 48 -42 68 -48z m726 66 c4 -6 8 -30 8 -53 0
-39 -2 -43 -25 -43 -14 0 -34 -9 -44 -19 -24 -24 -31 -11 -31 59 0 39 4 52 22
64 23 16 57 12 70 -8z m-188 -12 c31 -31 13 -74 -31 -74 -33 0 -49 35 -28 66
18 28 37 31 59 8z m672 -10 c4 -15 -1 -67 -10 -116 -10 -52 -15 -107 -11 -131
5 -38 1 -33 -39 48 -51 101 -53 113 -30 158 36 71 78 90 90 41z m-191 -26 c22
-21 66 -91 115 -187 44 -85 78 -156 76 -158 -15 -15 -227 221 -262 292 -14 29
-22 59 -18 68 10 27 51 20 89 -15z m1179 -4 c22 -21 20 -38 -10 -89 -25 -43
-26 -43 -44 -25 -18 18 -18 22 -5 54 8 20 15 45 15 56 0 24 22 26 44 4z
m-1285 -88 l43 -31 -36 -6 c-94 -15 -101 -92 -12 -123 l38 -13 -28 -6 c-58
-11 -141 111 -160 235 l-7 41 59 -33 c32 -18 79 -47 103 -64z m-665 62 c36
-33 39 -75 6 -108 -44 -44 -120 -11 -120 53 0 37 7 49 35 65 30 17 51 14 79
-10z m199 -10 c9 -11 17 -33 17 -49 0 -66 -88 -95 -129 -43 -25 32 -26 52 -5
82 31 45 83 49 117 10z m1090 12 c25 -20 43 -61 49 -111 2 -19 -7 -34 -33 -57
-20 -17 -40 -46 -46 -64 l-10 -33 -11 27 c-14 34 -27 41 -58 34 -17 -5 -26
-16 -31 -37 l-6 -30 -31 29 c-17 15 -43 36 -58 45 -25 15 -28 24 -28 68 0 96
44 154 95 126 l26 -13 -21 -19 c-26 -23 -26 -55 1 -89 28 -35 70 -35 98 0 28
35 26 60 -4 88 -26 24 -22 35 15 49 24 9 26 8 53 -13z m-1583 -10 c21 -40 -7
-73 -53 -62 -22 6 -33 48 -17 67 18 22 57 19 70 -5z m660 -6 c0 -18 -17 -45
-52 -83 -62 -66 -105 -149 -122 -233 -10 -49 -17 -63 -39 -75 -25 -12 -27 -12
-27 5 0 39 41 176 67 225 28 51 147 187 164 187 5 0 9 -12 9 -26z m-497 -4
c-3 -11 -6 -20 -8 -20 -1 0 -10 9 -20 20 -18 20 -17 20 8 20 20 0 24 -4 20
-20z m1881 -12 c17 -27 -17 -54 -103 -83 -42 -14 -94 -37 -115 -51 -45 -31
-45 -30 17 64 27 40 59 77 70 82 36 15 118 7 131 -12z m-1914 -18 c14 -26 4
-57 -20 -65 -44 -14 -80 41 -48 73 19 19 56 14 68 -8z m645 2 c6 -4 18 -27 28
-52 15 -39 15 -45 2 -53 -8 -4 -15 -15 -15 -22 0 -26 -19 -16 -50 27 -34 46
-37 69 -14 92 17 17 33 20 49 8z m723 -4 c19 -19 14 -56 -8 -68 -38 -21 -80
22 -60 61 12 21 50 25 68 7z m-818 -44 c9 -23 6 -31 -29 -69 -47 -51 -64 -82
-85 -157 -13 -41 -22 -57 -38 -62 -12 -3 -24 -3 -27 -1 -9 9 31 133 59 181 26
46 96 134 106 134 2 0 9 -12 14 -26z m-320 -25 c0 -4 -11 -9 -24 -11 -24 -5
-24 -4 -9 19 12 18 18 21 24 11 5 -7 9 -16 9 -19z m1825 3 c3 -8 0 -21 -7 -28
-10 -10 -17 -10 -31 1 -15 11 -16 16 -6 33 14 22 34 19 44 -6z m-2011 3 c4
-11 -1 -15 -17 -15 -13 0 -34 -10 -46 -21 -19 -18 -25 -19 -32 -8 -14 22 -11
27 14 22 14 -3 29 3 41 16 23 25 32 26 40 6z m-131 -27 c25 -29 22 -83 -5
-102 -51 -36 -118 -9 -118 46 0 78 74 112 123 56z m1060 -55 c42 -43 74 -79
72 -81 -2 -2 -17 4 -33 12 -17 9 -65 25 -109 37 -83 22 -123 42 -123 61 0 26
34 48 75 48 39 0 47 -5 118 -77z m988 52 c81 -29 129 -94 129 -177 0 -78 -18
-118 -81 -180 -84 -82 -139 -106 -281 -122 -41 -5 -48 -3 -48 12 0 14 14 21
62 31 181 37 318 138 318 234 0 42 -28 67 -74 67 -23 0 -27 3 -18 12 19 19 14
63 -9 84 -54 49 -197 -3 -301 -108 -35 -36 -72 -81 -83 -101 -32 -60 -50 -46
-19 16 61 121 135 193 237 228 64 23 112 24 168 4z m-1386 -67 c-30 -36 -59
-91 -69 -130 -5 -21 -12 -28 -31 -28 -17 0 -25 6 -25 18 0 28 55 136 90 176
32 36 33 36 47 16 13 -18 12 -23 -12 -52z m-475 42 c29 -29 25 -66 -10 -102
-25 -24 -36 -29 -58 -24 -59 14 -81 80 -40 123 27 29 80 31 108 3z m174 -1
c65 -51 0 -153 -79 -123 -18 7 -45 55 -45 79 0 24 46 65 73 65 13 0 36 -9 51
-21z m66 17 c0 -2 -3 -12 -6 -20 -5 -13 -9 -14 -20 -5 -20 16 -17 29 6 29 11
0 20 -2 20 -4z m399 -58 c58 -62 22 -82 -42 -23 -22 21 -25 30 -17 45 6 11 13
20 15 20 2 0 22 -19 44 -42z m767 25 c-2 -10 -8 -48 -12 -85 -3 -38 -9 -68
-13 -68 -34 1 -51 15 -51 42 0 44 47 128 72 128 5 0 7 -8 4 -17z m438 -19 c18
-18 18 -17 10 -38 -5 -13 -14 -15 -39 -10 -64 12 -100 -63 -53 -113 12 -13 31
-23 43 -23 31 0 65 28 65 55 0 33 16 40 45 21 38 -25 32 -60 -17 -111 l-43
-44 -72 6 -72 6 21 27 c16 22 18 32 9 49 -15 26 -53 36 -82 21 -19 -11 -21
-10 -16 5 4 9 7 39 7 66 l0 50 53 24 c60 28 118 32 141 9z m-1302 -10 c17 -16
16 -18 -11 -50 -16 -18 -35 -49 -42 -68 -11 -29 -18 -36 -41 -36 l-27 0 14 40
c14 38 72 130 83 130 3 0 14 -7 24 -16z m608 -30 c26 -22 60 -72 60 -88 0 -3
-57 -26 -66 -26 -3 0 -44 127 -44 136 0 11 22 1 50 -22z m129 4 c4 -13 11 -38
14 -55 6 -32 6 -33 -28 -33 -35 0 -35 1 -35 43 0 61 32 90 49 45z m-649 -49
c0 -3 -9 -14 -19 -23 -11 -10 -25 -30 -31 -46 -11 -26 -16 -28 -44 -23 -17 3
-33 7 -34 9 -8 6 10 44 39 83 l30 42 29 -18 c17 -9 30 -20 30 -24z m-599 -16
c-37 -15 -61 -49 -61 -85 0 -22 -5 -28 -23 -28 -20 0 -22 5 -22 50 0 41 3 50
18 50 27 0 74 27 82 47 6 17 7 17 21 -2 14 -19 13 -21 -15 -32z m830 31 c89
-26 192 -93 238 -155 41 -55 10 -50 -57 11 -90 82 -157 114 -247 118 -60 3
-74 1 -97 -18 -22 -17 -28 -30 -28 -62 0 -32 -6 -46 -30 -68 -72 -68 -15 -183
112 -226 56 -19 200 -26 251 -11 16 4 27 3 27 -2 0 -16 -99 -41 -161 -41 -112
0 -225 65 -268 153 -15 31 -21 63 -21 109 0 58 4 72 33 114 37 55 102 94 157
94 20 0 61 -7 91 -16z m765 -47 c-3 -18 -15 -47 -26 -65 l-20 -33 -33 18 c-17
10 -34 19 -36 21 -3 1 22 30 55 63 62 63 72 62 60 -4z m494 32 c0 -22 -6 -25
-68 -33 -37 -6 -43 -4 -40 10 3 17 86 56 101 47 4 -2 7 -13 7 -24z m-282 -1
c18 -18 14 -45 -10 -62 -25 -18 -53 -7 -63 24 -13 40 43 68 73 38z m-1959 -15
c51 -43 24 -133 -40 -133 -37 0 -79 40 -79 75 0 33 41 75 73 75 14 0 34 -8 46
-17z m-454 -22 l60 -28 -33 -17 c-18 -9 -42 -14 -52 -11 -23 7 -60 52 -60 71
0 20 17 17 85 -15z m234 -30 c1 -23 0 -23 -18 -7 -17 15 -18 22 -8 43 10 23
12 23 18 6 4 -10 8 -29 8 -42z m515 -8 c-4 -32 -10 -62 -15 -67 -5 -5 -6 7 -2
27 4 25 0 44 -11 61 -16 25 -14 29 27 35 4 0 4 -25 1 -56z m-59 22 c30 -30 32
-64 4 -99 -27 -34 -71 -35 -104 -1 -39 38 -30 86 20 113 31 18 54 14 80 -13z
m737 15 c29 -8 35 -14 31 -30 -3 -11 6 -40 20 -65 l26 -45 -38 0 c-44 0 -61
-14 -61 -50 0 -29 15 -52 44 -68 17 -9 16 -10 -12 -16 -17 -4 -43 -18 -57 -32
-24 -22 -31 -24 -57 -15 -92 32 -146 123 -102 173 16 17 18 17 40 -7 53 -57
144 0 112 70 -12 28 -44 40 -84 32 -21 -4 -25 -1 -22 17 6 40 81 58 160 36z
m160 -96 c15 -18 15 -20 -3 -42 -10 -13 -23 -20 -29 -17 -24 15 -70 89 -70
112 l0 24 43 -29 c23 -16 50 -38 59 -48z m365 62 c2 -2 1 -11 -3 -20 -5 -12
-20 -16 -65 -16 -33 0 -76 -7 -97 -15 -34 -15 -38 -15 -49 1 -15 20 -17 34 -5
34 4 1 30 7 57 15 43 13 150 13 162 1z m-1884 -31 c-11 -68 29 -115 96 -115
16 0 34 7 41 15 12 14 8 15 -26 9 -51 -8 -82 16 -91 69 -7 47 5 48 68 1 61
-45 73 -63 52 -86 -8 -9 -18 -37 -20 -61 -5 -39 -2 -46 27 -70 18 -16 44 -27
61 -27 22 0 29 -5 29 -20 0 -29 -35 -56 -119 -91 -110 -46 -209 -96 -264 -135
-39 -28 -47 -31 -47 -16 0 10 -6 27 -14 38 -14 19 -10 23 52 71 37 29 109 91
160 139 77 72 93 91 90 113 -5 38 -46 58 -87 41 -45 -18 -222 -239 -244 -303
-3 -9 -10 -9 -29 1 l-25 14 83 135 c85 137 120 217 108 246 -5 14 0 17 23 17
18 0 39 10 54 24 13 13 25 24 26 25 1 1 -1 -15 -4 -34z m2227 -4 c0 -19 -65
-81 -85 -81 -5 0 -18 11 -27 24 -16 22 -16 24 0 38 48 42 112 52 112 19z
m-1334 -26 c0 -31 -4 -36 -33 -46 -43 -14 -63 -6 -63 24 0 27 14 42 45 50 46
11 51 8 51 -28z m127 26 c47 -11 50 -14 43 -38 -5 -15 -15 -18 -68 -15 -73 4
-92 15 -77 43 11 21 41 24 102 10z m255 -13 c19 -19 14 -46 -12 -63 -29 -19
-54 -10 -62 21 -11 43 42 74 74 42z m776 -17 c24 -17 53 -50 69 -79 l27 -50
-23 -6 c-39 -10 -56 -6 -62 15 -4 12 -25 41 -47 65 -35 38 -38 45 -26 63 7 12
14 21 16 21 2 0 22 -13 46 -29z m-1278 -4 c-3 -14 1 -33 10 -46 19 -26 17 -29
-24 -41 -43 -12 -78 15 -69 52 6 21 52 53 86 57 2 1 1 -9 -3 -22z m1120 2 c24
-6 44 -15 44 -19 0 -10 -48 -30 -73 -30 -26 0 -87 35 -87 50 0 13 60 13 116
-1z m692 -27 c6 -61 -22 -82 -143 -112 l-108 -26 39 30 c21 17 67 57 102 89
73 68 105 74 110 19z m-2736 -69 c-36 -70 -132 -231 -132 -221 0 28 105 268
127 293 27 29 28 29 31 7 2 -12 -10 -48 -26 -79z m1898 88 c0 -4 -10 -23 -23
-42 -17 -25 -33 -36 -65 -43 -23 -5 -45 -6 -49 -3 -10 11 29 47 77 73 50 25
60 28 60 15z m-1260 -21 c33 -33 30 -75 -6 -107 -31 -28 -54 -29 -88 -2 -52
41 -23 129 44 129 17 0 39 -9 50 -20z m197 -62 c9 -10 22 -18 30 -18 21 0 14
-13 -23 -44 -30 -25 -40 -28 -62 -20 -23 8 -28 16 -30 50 -3 36 1 45 30 69
l33 28 3 -24 c2 -13 11 -32 19 -41z m897 43 c10 -11 13 -22 8 -25 -17 -10 -52
-95 -52 -125 0 -23 -5 -30 -26 -35 -15 -4 -29 -4 -32 -1 -19 19 51 205 77 205
4 0 16 -9 25 -19z m215 -2 c22 -16 39 -20 72 -17 24 3 51 8 60 12 12 5 15 -1
16 -29 1 -46 25 -82 68 -102 l35 -17 -20 -21 c-34 -37 -43 -78 -26 -120 9 -21
16 -38 16 -40 0 -1 -16 -2 -36 -3 -45 -2 -79 -23 -99 -62 l-16 -31 -31 23
c-33 23 -85 29 -124 15 -19 -7 -22 -3 -27 34 -6 45 -27 73 -70 96 l-29 15 23
25 c18 18 24 36 24 71 0 26 -4 54 -8 63 -7 13 0 17 34 22 42 6 99 48 99 74 0
18 6 16 39 -8z m-762 5 c14 -4 25 -19 33 -47 6 -23 14 -49 17 -57 5 -12 1 -11
-14 2 -27 24 -79 34 -98 18 -28 -23 -16 -79 28 -127 26 -29 15 -29 -83 -2 -76
20 -210 77 -210 88 0 3 25 24 55 46 86 63 203 97 272 79z m1007 -85 c29 -52
24 -59 -24 -34 -37 19 -50 43 -50 91 l0 37 24 -22 c13 -12 35 -44 50 -72z
m280 73 c4 -8 -121 -62 -143 -62 -6 0 -15 9 -21 20 -9 17 -7 22 12 29 54 20
143 28 152 13z m-1744 -5 c0 -2 -10 -13 -22 -25 l-23 -21 0 25 c0 18 5 24 23
24 12 0 22 -1 22 -3z m901 -14 c5 -5 4 -23 -3 -43 -7 -19 -13 -36 -13 -37 -1
-1 -18 2 -38 8 -47 13 -76 52 -56 75 10 12 25 15 57 11 24 -3 48 -9 53 -14z
m-1280 -35 c12 -23 25 -55 30 -71 8 -29 8 -29 -24 -23 -44 9 -61 29 -60 71 1
30 16 65 29 65 2 0 13 -19 25 -42z m-121 -17 c0 -10 -166 -170 -239 -231 -64
-52 -59 -37 27 80 65 89 129 159 157 170 20 8 55 -4 55 -19z m502 -13 c2 -26
10 -37 36 -49 l33 -17 -30 -21 c-35 -25 -68 -27 -93 -4 -25 22 -23 50 8 90 31
41 42 42 46 1z m1028 -24 c14 -40 2 -80 -31 -110 -18 -17 -19 -16 -19 27 0 51
17 119 30 119 5 0 14 -16 20 -36z m-567 14 c12 -6 44 -31 71 -55 28 -25 70
-56 95 -69 45 -24 45 -25 12 -19 -18 3 -63 5 -99 5 -61 0 -67 2 -97 35 -33 34
-52 85 -40 105 8 13 31 13 58 -2z m-633 -38 c26 -26 25 -45 -2 -64 -28 -20
-33 -20 -52 0 -21 21 -20 61 2 73 24 15 29 14 52 -9z m1050 -20 l0 -30 -72 0
c-66 0 -71 1 -57 16 17 17 84 43 112 44 12 0 17 -8 17 -30z m-573 -65 c65 -19
73 -24 52 -30 -13 -4 -36 -19 -51 -32 -26 -25 -30 -25 -110 -19 -46 4 -107 14
-136 22 l-54 15 28 37 c15 20 38 49 51 63 l23 25 61 -29 c33 -17 94 -40 136
-52z m-348 5 c16 -6 35 -9 40 -5 15 9 14 -8 -1 -23 -10 -10 -8 -19 5 -42 l18
-30 -29 0 c-19 0 -39 -9 -53 -25 l-24 -24 -52 51 -52 51 47 53 c46 53 47 53
59 30 7 -13 26 -29 42 -36z m1536 -7 c-4 -31 -11 -68 -17 -82 l-10 -26 -13 25
c-21 36 -18 83 6 114 33 42 42 33 34 -31z m193 26 c203 -54 316 -166 283 -282
-52 -178 -215 -206 -413 -71 -64 44 -143 126 -132 137 3 3 30 -18 59 -47 98
-97 235 -150 323 -127 47 13 77 49 69 83 -4 15 1 27 19 40 36 29 33 77 -8 123
-48 55 -212 130 -330 151 -21 3 -38 11 -38 16 0 12 74 2 168 -23z m306 -28
c39 -36 60 -85 46 -112 -18 -33 -48 -19 -140 67 -25 23 -63 51 -85 63 l-40 21
95 -6 c84 -6 98 -10 124 -33z m-435 12 c22 -5 23 -10 18 -54 -7 -55 -28 -102
-64 -141 l-26 -27 -17 21 c-16 21 -16 23 6 56 25 36 44 92 44 130 0 24 3 25
39 15z m130 -39 c39 -15 71 -30 71 -34 0 -12 -40 -20 -102 -20 l-58 0 0 40 c0
22 4 40 9 40 6 0 42 -12 80 -26z m-726 -1 c4 -3 -31 -20 -77 -38 -131 -49
-258 -150 -292 -231 -36 -85 -4 -162 61 -151 29 5 34 2 39 -18 16 -61 85 -74
154 -28 58 40 222 241 222 272 0 13 10 14 29 2 23 -15 -43 -132 -121 -217 -92
-98 -152 -128 -247 -122 -56 3 -75 9 -105 31 -51 39 -70 81 -70 152 0 145 102
257 294 322 106 36 104 36 113 26z m-284 -10 c53 -3 87 -9 79 -14 -34 -19
-260 -71 -330 -76 -62 -5 -82 -2 -102 11 -33 21 -24 43 28 67 45 20 155 25
325 12z m362 -26 c25 -17 36 -33 43 -65 16 -76 -15 -65 -65 23 -42 73 -37 82
22 42z m-57 -30 c7 -19 28 -50 46 -70 29 -33 30 -38 17 -57 l-14 -21 -32 27
c-29 24 -81 110 -81 133 0 8 16 16 42 20 4 0 14 -14 22 -32z m-890 8 c27 -8
81 -15 120 -15 60 0 73 -3 84 -20 7 -12 28 -22 53 -26 l40 -7 -98 -38 -98 -39
-80 80 c-44 44 -78 80 -75 80 3 0 27 -7 54 -15z m1784 -56 c25 -36 28 -62 9
-77 -10 -9 -16 -4 -25 22 -15 41 -52 60 -87 44 -33 -15 -49 -62 -32 -97 11
-23 19 -26 62 -26 38 -1 49 -4 47 -15 -6 -30 -43 -50 -91 -50 -72 0 -91 8 -91
39 -1 14 -7 37 -15 51 -19 34 -19 35 10 36 60 4 72 48 24 88 l-31 26 44 0 c24
1 54 7 68 15 22 12 29 11 55 -5 17 -10 40 -33 53 -51z m-2141 27 c36 -31 22
-52 -24 -36 -25 9 -46 6 -129 -21 -54 -17 -143 -51 -198 -75 -82 -36 -102 -41
-120 -32 -17 9 -18 13 -6 20 31 19 406 166 427 167 12 1 35 -10 50 -23z m867
-58 c-106 -102 -126 -114 -149 -92 -19 19 -14 56 13 93 13 18 41 30 107 48 49
13 91 26 94 28 2 3 8 5 13 5 5 0 -30 -37 -78 -82z m300 66 c10 -26 8 -30 -38
-52 -55 -28 -141 -41 -134 -21 5 14 134 89 154 89 7 0 15 -7 18 -16z m743 -19
c79 -47 35 -92 -47 -50 -34 18 -33 15 -20 49 12 32 13 32 67 1z m-1602 -2 c38
-18 46 -33 16 -33 -10 0 -31 -10 -46 -21 l-27 -22 -26 27 -27 27 24 20 c28 23
40 24 86 2z m1384 -29 c-29 -31 -119 -79 -119 -63 0 20 33 67 54 78 12 5 36
10 55 10 l34 1 -24 -26z m-1509 -31 c0 -8 7 -28 16 -45 14 -27 14 -32 1 -45
-13 -14 -16 -9 -27 43 -7 33 -17 68 -23 79 -10 20 -10 20 12 1 11 -11 21 -25
21 -33z m-125 10 c4 -10 15 -42 25 -70 18 -51 18 -53 1 -53 -33 0 -71 39 -71
71 0 55 30 89 45 52z m638 -19 c-16 -32 -16 -38 -2 -62 22 -41 63 -41 105 -1
l34 33 -16 -41 c-13 -32 -23 -42 -46 -47 -74 -15 -166 2 -253 47 l-40 20 110
43 c61 24 113 43 117 43 4 1 0 -15 -9 -35z m512 9 c18 -26 18 -27 -18 -60 -21
-19 -47 -33 -62 -33 -40 0 -35 50 10 89 20 17 40 31 44 31 5 0 17 -12 26 -27z
m-1220 7 c13 -21 -140 -64 -295 -84 -57 -8 -39 1 115 55 110 39 168 48 180 29z
m1911 -87 c8 -18 14 -37 14 -43 0 -15 -93 36 -120 65 l-22 23 23 26 23 26 34
-32 c19 -18 41 -47 48 -65z m199 73 c19 -29 10 -54 -21 -62 -30 -8 -54 11 -54
40 0 47 49 62 75 22z m-1705 -8 c20 -16 22 -22 10 -26 -8 -3 -27 -18 -41 -33
l-26 -28 -34 35 -34 35 25 19 c33 25 69 25 100 -2z m1114 1 c40 -32 33 -43
-23 -35 -27 4 -64 12 -82 18 -30 10 -31 12 -14 25 28 20 88 16 119 -8z m-428
-30 c-7 -21 -6 -33 7 -53 19 -28 37 -32 67 -16 16 9 19 5 22 -43 4 -48 2 -55
-31 -90 -57 -62 -120 -84 -149 -55 -18 18 -14 38 8 38 28 0 60 35 60 67 0 31
-35 73 -62 73 -49 0 -88 -52 -68 -90 7 -13 6 -19 -6 -24 -23 -9 -31 -7 -48 10
-31 30 -9 113 46 179 24 28 30 30 95 30 l69 0 -10 -26z m1272 15 c17 -5 15
-33 -3 -40 -8 -4 -31 -3 -50 0 -28 6 -35 11 -35 31 0 22 3 23 38 19 20 -3 43
-7 50 -10z m-2312 -90 c36 -18 39 -22 25 -31 -13 -8 -22 -7 -36 4 -16 12 -42
14 -140 8 -66 -4 -163 -12 -215 -19 -95 -13 -109 -10 -110 20 0 15 15 18 176
43 72 11 155 28 185 38 l54 18 10 -30 c7 -20 24 -37 51 -51z m1243 49 c5 -3
-78 -113 -86 -113 -3 0 -3 21 0 46 6 56 42 100 66 82 9 -7 18 -13 20 -15z
m366 7 c3 -11 4 -24 1 -29 -12 -20 -192 -47 -214 -33 -8 6 -10 16 -4 31 7 19
16 22 78 25 39 2 79 8 90 14 28 17 42 14 49 -8z m-1177 -13 c10 -8 8 -13 -8
-24 -11 -8 -23 -27 -27 -44 l-8 -30 -35 31 -35 30 32 30 c32 29 50 31 81 7z
m76 -44 c28 -13 33 -19 25 -30 -6 -7 -9 -26 -7 -43 5 -36 -8 -38 -69 -10 -49
22 -56 47 -23 80 24 24 30 25 74 3z m1135 -25 c6 -18 13 -53 17 -77 7 -42 6
-43 -15 -31 -20 10 -81 94 -81 110 0 5 44 26 62 29 3 1 11 -14 17 -31z m578
-8 c-14 -16 -27 -35 -29 -41 -2 -7 -10 -9 -17 -5 -9 6 -4 17 20 42 41 42 60
45 26 4z m-1467 -9 c0 -26 -58 -48 -67 -25 -7 18 4 30 32 37 34 8 35 8 35 -12z
m790 0 c19 -37 6 -111 -20 -111 -16 0 -40 57 -40 95 0 31 3 35 25 35 14 0 29
-8 35 -19z m-1570 -1 c8 -5 12 -12 9 -15 -22 -21 -262 -32 -359 -16 l-45 7 65
8 c68 8 234 22 285 24 17 1 37 -2 45 -8z m90 -59 c0 -39 -4 -72 -9 -76 -13 -8
-51 44 -51 70 0 23 35 75 51 75 5 0 9 -31 9 -69z m595 59 c-3 -5 -1 -18 5 -29
9 -18 6 -20 -35 -27 -50 -7 -73 -2 -81 21 -13 33 4 45 61 45 34 0 54 -4 50
-10z m337 -15 c10 -22 9 -29 -10 -47 -20 -20 -22 -20 -46 -4 -42 27 -29 76 21
76 15 0 27 -9 35 -25z m468 12 c0 -28 -21 -83 -47 -121 l-27 -41 -7 30 c-9 41
-11 130 -2 138 12 13 83 8 83 -6z m504 -77 c60 -20 114 -44 120 -53 19 -30 -5
-52 -59 -55 l-49 -3 -76 81 c-41 44 -69 77 -60 73 8 -3 64 -23 124 -43z
m-1224 -66 l-17 -58 -26 40 c-14 21 -29 51 -32 65 -6 24 -3 28 37 40 41 14 43
13 50 -8 3 -12 -2 -48 -12 -79z m1429 82 c13 -14 20 -29 16 -35 -9 -16 -17
-13 -49 15 -23 21 -26 28 -15 35 20 13 23 12 48 -15z m101 -116 c0 -21 -20
-40 -42 -40 -11 0 -24 16 -36 42 -18 42 -18 43 2 60 20 17 22 17 49 -14 15
-18 27 -39 27 -48z m-2535 44 c107 -15 180 -39 180 -59 0 -15 -103 -18 -165
-5 -53 12 -190 74 -190 86 0 4 15 3 33 0 17 -4 82 -14 142 -22z m1038 -36
c-21 -24 -26 -17 -13 18 9 22 13 25 20 14 6 -10 4 -21 -7 -32z"/>
<path d="M952 2633 c-25 -12 -36 -13 -45 -4 -18 18 -87 13 -124 -10 -43 -27
-65 -70 -62 -119 2 -25 -3 -45 -13 -57 -20 -22 -38 -67 -38 -95 0 -35 32 -88
61 -104 17 -8 29 -23 29 -34 0 -11 13 -34 29 -52 25 -28 36 -33 74 -33 29 0
52 6 65 18 19 18 22 18 46 2 27 -18 73 -15 123 8 42 19 67 90 44 126 -7 10 1
23 24 45 41 39 53 91 31 134 -9 17 -25 33 -36 37 -15 5 -20 15 -20 39 0 41
-32 84 -76 102 -43 18 -71 17 -112 -3z m-47 -33 l22 -20 18 20 c23 26 100 27
131 2 30 -24 45 -57 39 -84 -4 -18 2 -28 28 -43 29 -19 32 -25 31 -69 0 -47
-18 -76 -55 -88 -8 -3 -7 -16 1 -45 11 -37 11 -46 -4 -68 -31 -47 -118 -62
-151 -25 -17 19 -18 19 -37 -5 -43 -55 -148 -15 -148 56 0 22 -5 29 -19 29
-56 0 -83 119 -38 164 19 19 23 34 23 74 -1 41 4 56 24 77 45 48 100 58 135
25z"/>
<path d="M956 2547 c-23 -23 -24 -23 -46 -5 -48 39 -114 6 -108 -55 2 -26 -3
-36 -27 -52 -41 -28 -44 -66 -10 -101 15 -15 32 -23 41 -20 13 5 14 0 9 -24
-5 -23 -1 -35 19 -55 32 -32 70 -32 99 -1 20 21 25 22 42 10 47 -34 112 10
100 68 -5 21 -3 28 9 28 9 0 23 11 32 25 22 33 11 72 -26 93 -21 12 -30 25
-30 44 0 27 -40 68 -67 68 -8 0 -24 -10 -37 -23z m79 -40 c8 -24 6 -31 -10
-43 -43 -32 -89 3 -67 51 17 37 62 32 77 -8z m-141 17 c10 -4 16 -18 16 -35 0
-23 -6 -30 -27 -35 -30 -8 -56 5 -61 30 -7 35 31 56 72 40z m66 -102 c41 -33
8 -92 -41 -77 -28 9 -35 52 -14 75 22 25 27 25 55 2z m138 -10 c8 -51 -58 -74
-80 -27 -15 34 5 57 46 53 24 -2 32 -9 34 -26z m-254 -4 c13 -19 14 -25 2 -43
-19 -28 -66 -27 -77 3 -6 17 -4 27 11 42 26 26 45 25 64 -2z m188 -75 c39 -35
10 -91 -38 -73 -46 18 -35 80 15 89 3 1 13 -6 23 -16z m-107 -44 c11 -33 -24
-63 -58 -50 -34 13 -37 53 -5 75 25 18 53 7 63 -25z"/>
<path d="M1342 2244 c-18 -12 -22 -24 -20 -52 3 -32 -1 -39 -27 -52 -40 -20
-47 -71 -14 -106 12 -13 30 -24 39 -24 13 0 16 -6 12 -26 -3 -17 3 -33 18 -50
30 -31 73 -32 97 0 17 21 21 22 38 10 46 -34 109 0 107 57 -1 27 4 37 21 44
40 18 34 98 -8 117 -15 7 -25 20 -25 32 0 12 -7 32 -16 44 -20 28 -74 30 -98
3 -17 -19 -18 -19 -37 0 -23 23 -57 24 -87 3z m202 -20 c20 -20 20 -38 0 -59
-21 -21 -53 -16 -71 12 -13 19 -12 24 6 42 25 25 44 27 65 5z m-120 -16 c12
-20 2 -44 -27 -62 -19 -12 -57 17 -57 44 0 40 62 53 84 18z m190 -90 c16 -26
-4 -52 -42 -56 -26 -3 -32 1 -38 23 -4 15 -1 31 7 41 16 19 59 14 73 -8z
m-266 -4 c38 -26 22 -74 -25 -74 -21 0 -43 25 -43 49 0 11 28 41 38 41 4 0 18
-7 30 -16z m144 -9 c10 -22 9 -29 -9 -46 -26 -26 -60 -18 -69 17 -13 52 56 77
78 29z m72 -87 c14 -23 -3 -52 -33 -56 -42 -6 -67 38 -39 66 17 17 58 11 72
-10z m-126 -31 c7 -55 -44 -78 -73 -33 -24 36 -5 68 38 64 27 -2 33 -8 35 -31z"/>
<path d="M1434 1415 c-7 -18 3 -35 21 -35 18 0 26 25 12 39 -15 15 -27 14 -33
-4z"/>
<path d="M1754 1465 c-9 -23 10 -40 25 -22 9 11 8 17 -4 27 -12 10 -16 9 -21
-5z"/>
<path d="M2637 1356 c-7 -16 1 -26 20 -26 7 0 13 9 13 20 0 23 -25 27 -33 6z"/>
<path d="M2054 772 c-107 -50 -130 -172 -50 -260 31 -33 39 -36 97 -40 55 -3
69 0 98 20 51 34 73 71 78 125 10 122 -112 206 -223 155z m144 -31 c32 -17 65
-95 58 -135 -23 -123 -193 -158 -256 -53 -77 125 65 259 198 188z"/>
<path d="M2041 703 c-47 -44 -45 -101 4 -150 32 -32 40 -35 77 -30 59 8 91 43
92 102 1 41 -3 50 -32 76 -44 40 -100 40 -141 2z m132 -21 c25 -22 23 -93 -3
-117 -32 -29 -88 -25 -116 9 -29 33 -30 55 -3 90 23 29 54 33 87 10 42 -29 20
-89 -30 -82 -32 4 -33 52 0 56 15 2 22 -2 22 -13 0 -12 -5 -15 -21 -10 -15 5
-19 4 -15 -4 10 -15 43 -14 49 2 8 21 -13 47 -37 47 -53 0 -63 -72 -14 -99 25
-14 29 -14 55 5 40 30 43 76 6 111 -28 26 -13 23 20 -5z"/>
<path d="M1174 725 c-7 -18 3 -35 21 -35 21 0 28 19 15 35 -16 19 -29 19 -36
0z"/>
<path d="M1400 2992 c8 -2 23 -11 33 -20 15 -14 19 -14 35 0 9 9 24 18 32 20
8 3 -14 5 -50 5 -36 0 -58 -2 -50 -5z"/>
<path d="M1840 2947 c-17 -85 12 -135 52 -89 37 41 73 149 47 140 -7 -2 -18
-24 -25 -49 -8 -25 -23 -54 -35 -65 l-22 -19 5 50 c3 28 9 58 13 68 5 12 3 17
-8 17 -11 0 -19 -17 -27 -53z"/>
<path d="M2025 2970 c-12 -55 16 -150 45 -150 32 0 51 35 57 109 5 62 4 71
-11 71 -13 0 -16 -11 -16 -63 0 -39 -5 -71 -14 -83 -14 -18 -15 -18 -25 9 -6
16 -11 53 -11 83 0 58 -14 72 -25 24z"/>
<path d="M2320 2995 c0 -11 32 -70 48 -87 38 -44 82 -3 62 57 -16 49 -42 48
-27 0 16 -53 -4 -67 -32 -22 -11 19 -21 39 -21 46 0 6 -7 11 -15 11 -8 0 -15
-2 -15 -5z"/>
<path d="M2490 2980 c14 -25 44 -42 64 -34 17 7 22 54 6 54 -5 0 -10 -7 -10
-15 0 -8 -4 -15 -9 -15 -5 0 -14 7 -21 15 -7 8 -19 15 -27 15 -11 0 -11 -4 -3
-20z"/>
<path d="M1330 2953 c-51 -26 -82 -78 -78 -130 2 -25 -2 -45 -8 -47 -16 -6
-44 -70 -44 -103 0 -36 33 -90 64 -104 14 -7 26 -23 30 -40 9 -46 51 -79 100
-79 23 0 51 7 64 15 16 12 27 13 41 5 31 -16 93 -12 128 10 43 26 57 54 49
106 -5 36 -2 45 13 53 10 6 26 27 36 47 22 48 13 95 -25 128 -20 16 -30 34
-30 52 0 17 -13 39 -39 65 -33 34 -45 39 -82 39 -24 -1 -55 -7 -69 -15 -14 -7
-29 -10 -35 -5 -23 19 -80 21 -115 3z m267 -23 c39 -23 57 -54 49 -86 -5 -19
-1 -26 23 -38 16 -9 31 -23 35 -31 17 -46 -2 -107 -40 -124 -27 -12 -29 -20
-13 -55 35 -75 -93 -156 -150 -94 l-20 21 -27 -26 c-36 -36 -77 -36 -115 2
-17 17 -29 40 -29 55 0 17 -6 26 -15 26 -9 0 -27 11 -40 25 -37 36 -35 106 3
145 23 23 27 32 19 51 -14 38 9 97 46 119 40 25 94 26 119 3 13 -11 22 -14 26
-7 24 36 82 43 129 14z"/>
<path d="M1495 2878 c-11 -6 -23 -16 -27 -22 -4 -7 -13 -4 -26 7 -10 9 -33 17
-50 17 -39 0 -66 -36 -60 -79 4 -24 0 -31 -17 -35 -57 -15 -56 -103 2 -120 27
-8 31 -14 30 -43 -1 -42 22 -66 64 -66 23 0 38 7 53 26 18 22 23 24 31 12 17
-25 59 -28 85 -7 18 14 24 29 23 55 -1 27 4 37 22 45 46 21 39 106 -10 118
-20 5 -25 12 -25 40 0 51 -49 78 -95 52z m-67 -30 c18 -18 14 -56 -7 -68 -31
-16 -51 -12 -63 15 -9 21 -8 28 7 45 20 23 45 26 63 8z m132 -3 c7 -8 10 -25
6 -40 -11 -43 -86 -30 -86 15 0 37 55 55 80 25z m58 -87 c7 -7 12 -21 12 -33
0 -46 -48 -60 -74 -23 -20 28 -20 33 0 52 18 19 45 21 62 4z m-116 -24 c16
-34 0 -59 -37 -59 -37 0 -53 25 -37 59 8 18 19 26 37 26 18 0 29 -8 37 -26z
m-125 -10 c16 -26 16 -27 -6 -45 -29 -24 -43 -24 -66 1 -17 18 -17 21 -1 45
21 32 51 32 73 -1z m193 -68 c28 -34 -11 -93 -47 -70 -32 20 -39 41 -19 63 22
24 49 27 66 7z m-125 -30 c13 -19 14 -29 5 -45 -20 -39 -80 -21 -80 24 0 47
49 60 75 21z"/>
<path d="M2862 2770 c-39 -24 -39 -48 -2 -67 31 -16 132 -13 138 5 3 9 -15 12
-67 12 -38 0 -73 5 -76 10 -9 15 57 40 105 40 22 0 40 5 40 10 0 19 -103 11
-138 -10z"/>
<path d="M2971 2416 c-12 -13 -21 -32 -19 -43 4 -23 48 -31 48 -9 0 11 -6 13
-17 9 -17 -7 -17 -5 0 21 25 37 17 53 -12 22z"/>
<path d="M1 2304 c-1 -12 10 -46 24 -76 33 -72 42 -118 24 -118 -8 0 -22 12
-31 28 -12 18 -18 22 -18 10 0 -27 11 -48 32 -59 27 -14 48 5 48 45 0 36 -78
203 -79 170z"/>
<path d="M2 870 l1 -95 9 74 c7 49 7 80 0 95 -8 16 -10 -2 -10 -74z"/>
<path d="M0 432 c0 -6 9 -26 20 -45 14 -24 19 -44 14 -61 -4 -19 -2 -26 8 -26
23 0 58 -44 58 -73 0 -40 -21 -77 -52 -93 -28 -14 -28 -15 -12 -46 12 -24 14
-36 5 -55 -14 -31 -14 -33 4 -33 20 0 30 47 17 82 -9 24 -8 30 10 39 11 6 29
31 40 55 16 37 17 50 8 79 -6 18 -22 41 -36 49 -13 9 -24 26 -24 37 0 11 -6
32 -14 48 -17 32 -46 59 -46 43z"/>
<path d="M0 275 c0 -5 5 -24 12 -42 10 -27 10 -38 -1 -54 -16 -27 -5 -38 16
-16 23 23 21 74 -5 100 -12 12 -22 17 -22 12z"/>
<path d="M2168 84 c-28 -15 -45 -54 -33 -73 11 -19 25 -12 25 12 0 27 17 47
42 47 20 0 53 -44 43 -60 -3 -5 1 -10 9 -10 22 0 21 42 -1 68 -25 28 -53 34
-85 16z"/>
</g>
</svg>
