<?xml version="1.0" standalone="no"?>
<!DOCTYPE svg PUBLIC "-//W3C//DTD SVG 20010904//EN"
 "http://www.w3.org/TR/2001/REC-SVG-20010904/DTD/svg10.dtd">
<svg version="1.0" xmlns="http://www.w3.org/2000/svg"
 width="150.000000pt" height="30.000000pt" viewBox="0 0 300.000000 30.000000"
 preserveAspectRatio="xMidYMid meet">
<g transform="translate(0.000000,30.000000) scale(0.100000,-0.100000)"
fill="#f28b8b" stroke="none">
<path d="M1394 241 c-42 -28 -65 -37 -75 -30 -19 12 -76 11 -84 -1 -8 -14
-1132 -14 -1140 0 -10 16 -42 12 -49 -7 -4 -9 0 -23 9 -32 12 -13 19 -13 35
-3 27 16 1121 18 1152 1 16 -8 30 -8 58 1 35 12 41 10 99 -22 34 -19 58 -38
54 -41 -12 -12 -33 -7 -52 12 -10 10 -24 16 -30 12 -6 -4 12 -21 43 -40 46
-27 57 -31 74 -20 11 7 28 9 38 5 16 -7 14 -10 -19 -27 -34 -18 -40 -18 -66
-4 -16 8 -31 19 -33 24 -2 6 -9 7 -17 2 -11 -7 -3 -15 29 -31 l43 -22 49 23
c52 24 58 33 31 44 -16 6 -14 9 10 21 31 17 34 29 10 38 -14 6 -12 10 13 25
26 16 32 17 61 3 26 -12 38 -13 58 -4 36 17 1196 17 1212 1 18 -18 45 -2 41
23 -3 23 -48 40 -48 19 0 -8 -179 -11 -595 -11 -390 0 -595 3 -595 10 0 13
-56 13 -80 0 -15 -8 -32 -2 -82 30 -35 22 -70 40 -78 40 -8 0 -42 -18 -76 -39z
m107 10 l31 -19 -23 -16 c-29 -20 -32 -20 -70 3 l-31 19 28 16 c16 8 30 15 31
16 2 0 16 -8 34 -19z m-58 -53 c18 -13 17 -14 -6 -27 -21 -11 -29 -10 -57 4
l-33 17 23 18 c25 19 34 17 73 -12z m132 8 c18 -13 17 -14 -8 -31 -26 -16 -28
-16 -54 0 l-26 18 24 13 c31 17 41 17 64 0z m-266 -5 c11 -7 9 -11 -8 -20 -33
-18 -76 0 -54 22 9 10 45 8 62 -2z m387 -2 c13 -22 -13 -33 -46 -19 -23 9 -28
15 -18 21 19 12 56 11 64 -2z m-192 -34 c21 -16 21 -17 -9 -33 -18 -9 -43 -4
-64 15 -6 5 32 32 44 32 6 0 19 -6 29 -14z m51 -34 c8 -14 -33 -34 -53 -26
-15 6 -15 8 2 21 23 16 42 18 51 5z m-69 -32 c3 -6 2 -15 -2 -19 -12 -12 -38
5 -30 19 9 14 23 14 32 0z"/>
</g>
</svg>
